<svg xmlns="http://www.w3.org/2000/svg" viewBox="16 32 16 16" width="16" height="16">
  <path d=" M 22 36 L 26 36 C 28.208 36 30 37.792 30 40 L 30 40 C 30 42.208 28.208 44 26 44 L 22 44 C 19.792 44 18 42.208 18 40 L 18 40 C 18 37.792 19.792 36 22 36 Z  M 22 38 L 26 38 C 27.104 38 28 38.896 28 40 L 28 40 C 28 41.104 27.104 42 26 42 L 22 42 C 20.896 42 20 41.104 20 40 L 20 40 C 20 38.896 20.896 38 22 38 Z " fill-rule="evenodd" fill="rgb(0,0,0)" fill-opacity="0.2" />
  <path d=" M 26 44 L 25.732 44 C 25.386 44.598 24.74 45 24 45 C 22.896 45 22 44.104 22 43 L 22 43 C 22 41.896 22.896 41 24 41 C 24.74 41 25.386 41.402 25.732 42 L 25.732 42 L 26 42 L 26 42 C 28.208 42 30 43.792 30 46 L 30 48 L 28 48 L 28 46 L 28 46 L 28 46 L 28 46 C 28 44.896 27.104 44 26 44 Z " fill="rgb(0,0,0)" />
</svg>
