<svg xmlns="http://www.w3.org/2000/svg" viewBox="32 0 16 16" width="16" height="16">
  <path d=" M 35 5 C 35.015 7.195 36.801 8.973 39 8.973 L 39 14.973 L 41 14.973 L 41 7 L 39 7 L 39 6.973 C 37.896 6.973 37 6.077 37 4.973 L 37 4.973 L 37 4.973 L 37 0.973 L 35 0.973 L 35 4.973 L 35 5 L 35 5 Z " fill="rgb(0,0,0)" />
  <path d=" M 45 5 C 44.985 7.195 43.199 8.973 41 8.973 L 41 6.973 L 41 6.973 C 42.104 6.973 43 6.077 43 4.973 L 43 0.973 L 45 0.973 L 45 4.973 L 45 5 L 45 5 Z " fill="rgb(0,0,0)" fill-opacity="0.2" />
</svg>
