<svg xmlns="http://www.w3.org/2000/svg" viewBox="16 0 16 16" width="16" height="16">
  <path d=" M 22 4 L 26 4 C 28.208 4 30 5.792 30 8 L 30 8 C 30 10.208 28.208 12 26 12 L 22 12 C 19.792 12 18 10.208 18 8 L 18 8 C 18 5.792 19.792 4 22 4 Z  M 22 6 L 26 6 C 27.104 6 28 6.896 28 8 L 28 8 C 28 9.104 27.104 10 26 10 L 22 10 C 20.896 10 20 9.104 20 8 L 20 8 C 20 6.896 20.896 6 22 6 Z " fill-rule="evenodd" fill="rgb(0,0,0)" fill-opacity="0.2" />
  <path d=" M 25.732 10.027 C 25.386 9.43 24.74 9.027 24 9.027 C 22.896 9.027 22 9.923 22 11.027 C 22 12.131 22.896 13.027 24 13.027 C 24.74 13.027 25.386 12.625 25.732 12.027 L 32 12.027 L 32 10.027 L 25.732 10.027 Z " fill="rgb(0,0,0)" />
</svg>
