<svg xmlns="http://www.w3.org/2000/svg" viewBox="0 0 16 16" width="16" height="16">
  <path d=" M 6 4 L 10 4 C 12.208 4 14 5.792 14 8 L 14 8 C 14 10.208 12.208 12 10 12 L 6 12 C 3.792 12 2 10.208 2 8 L 2 8 C 2 5.792 3.792 4 6 4 Z  M 6 6 L 10 6 C 11.104 6 12 6.896 12 8 L 12 8 C 12 9.104 11.104 10 10 10 L 6 10 C 4.896 10 4 9.104 4 8 L 4 8 C 4 6.896 4.896 6 6 6 Z " fill-rule="evenodd" fill="rgb(0,0,0)" fill-opacity="0.2" />
  <path d=" M 14 8 C 14 5.792 12.208 4 10 4 L 6 4 L 6 4 C 3.792 4 2 5.792 2 8 L 2 8 C 2 10.208 3.792 12 6 12 L 6.268 12 C 6.614 12.598 7.26 13 8 13 C 8.74 13 9.386 12.598 9.732 12 C 9.902 11.706 10 11.364 10 11 C 10 9.896 9.104 9 8 9 C 7.26 9 6.614 9.402 6.268 10 L 6 10 C 4.896 10 4 9.104 4 8 L 4 8 C 4 6.896 4.896 6 6 6 L 6 6 L 10 6 C 11.104 6 12 6.896 12 8 L 12 8 C 12 10.208 13.792 12 16 12 L 16 12 L 16 10 C 14.896 10 14 9.104 14 8 L 14 8 L 14 8 Z " fill="rgb(0,0,0)" />
</svg>
