<svg xmlns="http://www.w3.org/2000/svg" viewBox="0 16 16 16" width="16" height="16">
  <path d=" M 6 20 L 10 20 C 12.208 20 14 21.792 14 24 L 14 24 C 14 26.208 12.208 28 10 28 L 6 28 C 3.792 28 2 26.208 2 24 L 2 24 C 2 21.792 3.792 20 6 20 Z  M 6 22 L 10 22 C 11.104 22 12 22.896 12 24 L 12 24 C 12 25.104 11.104 26 10 26 L 6 26 C 4.896 26 4 25.104 4 24 L 4 24 C 4 22.896 4.896 22 6 22 Z " fill-rule="evenodd" fill="rgb(0,0,0)" fill-opacity="0.2" />
  <path d=" M 6.268 26 C 6.614 25.402 7.26 25 8 25 C 9.104 25 10 25.896 10 27 C 10 28.104 9.104 29 8 29 C 7.26 29 6.614 28.598 6.268 28 L 6.268 28 L 6 28 L 6 28 C 3.792 28 2 26.208 2 24 L 2 16 L 2 16 L 4 16 L 4 24 C 4 25.104 4.896 26 6 26 L 6.268 26 Z " fill="rgb(0,0,0)" />
</svg>
