<svg xmlns="http://www.w3.org/2000/svg" viewBox="16 16 16 16" width="16" height="16">
  <path d=" M 22 20 L 26 20 C 28.208 20 30 21.792 30 24 L 30 24 C 30 26.208 28.208 28 26 28 L 22 28 C 19.792 28 18 26.208 18 24 L 18 24 C 18 21.792 19.792 20 22 20 Z  M 22 22 L 26 22 C 27.104 22 28 22.896 28 24 L 28 24 C 28 25.104 27.104 26 26 26 L 22 26 C 20.896 26 20 25.104 20 24 L 20 24 C 20 22.896 20.896 22 22 22 Z " fill-rule="evenodd" fill="rgb(0,0,0)" fill-opacity="0.2" />
  <path d=" M 22 22 L 24 22 L 26 22 C 27.104 22 28 22.896 28 24 L 28 24 C 28 25.104 27.104 26 26 26 L 25.732 26 L 25.732 26 C 25.386 25.402 24.74 25 24 25 C 22.896 25 22 25.896 22 27 C 22 28.104 22.896 29 24 29 C 24.74 29 25.386 28.598 25.732 28 L 26 28 C 28.208 28 30 26.208 30 24 L 30 24 C 30 21.792 28.208 20 26 20 L 26 20 L 24 20 L 22 20 L 22 20 L 22 20 C 20.896 20 20 19.104 20 18 L 20 18 L 20 18 L 20 16 L 18 16 L 18 16 L 18 16 L 18 18 C 18 20.208 19.792 22 22 22 L 22 22 L 22 22 Z " fill="rgb(0,0,0)" />
</svg>
