<svg xmlns="http://www.w3.org/2000/svg" viewBox="0 32 16 16" width="16" height="16">
  <path d=" M 6 36 L 10 36 C 12.208 36 14 37.792 14 40 L 14 40 C 14 42.208 12.208 44 10 44 L 6 44 C 3.792 44 2 42.208 2 40 L 2 40 C 2 37.792 3.792 36 6 36 Z  M 6 38 L 10 38 C 11.104 38 12 38.896 12 40 L 12 40 C 12 41.104 11.104 42 10 42 L 6 42 C 4.896 42 4 41.104 4 40 L 4 40 C 4 38.896 4.896 38 6 38 Z " fill-rule="evenodd" fill="rgb(0,0,0)" fill-opacity="0.2" />
  <path d=" M 6.268 42 C 6.614 41.402 7.26 41 8 41 C 9.104 41 10 41.896 10 43 C 10 43.364 9.902 43.706 9.732 44 C 9.386 44.598 8.74 45 8 45 C 7.26 45 6.614 44.598 6.268 44 L 6 44 C 3.792 44 2 42.208 2 40 L 2 40 C 2 37.792 3.792 36 6 36 L 6 36 L 10 36 C 12.208 36 14 37.792 14 40 L 14 48 L 12 48 L 12 40 C 12 38.896 11.104 38 10 38 L 6 38 L 6 38 C 4.896 38 4 38.896 4 40 L 4 40 C 4 41.104 4.896 42 6 42 L 6.268 42 Z " fill="rgb(0,0,0)" />
</svg>
